<svg xmlns="http://www.w3.org/2000/svg" width="15" height="14" fill="none"><path fill="#1E1E1E" d="M0 0h15v14H0z"/><g clip-path="url(#a)"><path fill="#fff" d="M-1314-1068H126v4758h-1440z"/><g clip-path="url(#b)"><path fill="#000" fill-rule="evenodd" stroke="#000" d="M12.666 6.473a26.742 26.742 0 0 1-1.056-1.027C10.506 4.31 9.2 2.755 8.538 1.165L9.462.78c.587 1.41 1.782 2.855 2.865 3.97a25.947 25.947 0 0 0 1.947 1.801l.03.024.007.006.001.001.488.39-.488.391-.001.002-.007.005-.03.024-.117.097a25.947 25.947 0 0 0-1.83 1.705c-1.083 1.114-2.278 2.559-2.865 3.969l-.924-.385c.663-1.59 1.968-3.145 3.072-4.28.381-.393.744-.74 1.056-1.027H0v-1h12.666Z" clip-rule="evenodd"/></g></g><defs><clipPath id="a"><path fill="#fff" d="M-1314-1068H126v4758h-1440z"/></clipPath><clipPath id="b"><path fill="#fff" d="M0 13.5V.5h15v13z"/></clipPath></defs></svg>