<svg aria-hidden="true" style="position: absolute; width: 0; height: 0; overflow: hidden;" version="1.1" xmlns="http://www.w3.org/2000/svg" xmlns:xlink="http://www.w3.org/1999/xlink">
<defs>
<symbol id="icon-email" viewBox="0 0 32 32">
<path fill="#1e1e1e" style="fill: var(--color1, #1e1e1e)" d="M0 0.758h32.009v30.484h-32.009z"></path>
<path fill="#fff" style="fill: var(--color2, #fff)" d="M-1184.32-6827.756h2194.88v7252.248h-2194.88z"></path>
<path fill="#000" style="fill: var(--color3, #000)" d="M-216.44-54.114h259.118c38.723 0 70.114 31.391 70.114 70.114s-31.391 70.114-70.114 70.114h-259.118c-38.723 0-70.114-31.391-70.114-70.114s31.391-70.114 70.114-70.114z"></path>
<path fill="#fff" style="fill: var(--color2, #fff); stroke: var(--color2, #fff)" stroke="#fff" stroke-linejoin="miter" stroke-linecap="butt" stroke-miterlimit="4" stroke-width="1.5238" d="M21.004 9.865c-0.646 0.026-1.41 0.043-2.244 0.030-2.416-0.034-5.498-0.305-7.926-1.303l0.581-1.41c2.154 0.887 4.999 1.155 7.367 1.189 0.149 0.002 0.325 0.003 0.5 0.003 1.246 0 2.478-0.058 3.695-0.17l-0.156 0.012 0.059-0.006 0.014-0.002h0.003l0.947-0.107-0.105 0.948v0.003l-0.002 0.015-0.006 0.056c-0.026 0.241-0.056 0.62-0.081 1.001l-0.005 0.096c-0.046 0.738-0.087 1.771-0.070 2.942 0.032 2.369 0.302 5.214 1.189 7.368l-1.41 0.579c-1-2.427-1.27-5.51-1.303-7.926-0.012-0.832 0.005-1.596 0.030-2.242l-13.651 13.651-1.078-1.078 13.651-13.651z"></path>
</symbol>
<symbol id="icon-menu" viewBox="0 0 32 32">
<path fill="none" stroke="#fff" style="stroke: var(--color2, #fff)" stroke-linejoin="round" stroke-linecap="round" stroke-miterlimit="4" stroke-width="2.6667" d="M4.001 16.006h24.009M4.001 8.003h24.009M4.001 24.009h24.009"></path>
</symbol>
<symbol id="icon-number" viewBox="0 0 32 32">
<path fill="var(--myColor1)" d="M32 16c0 8.837-7.163 16-16 16s-16-7.163-16-16v0c0-8.837 7.163-16 16-16s16 7.163 16 16v0z"></path>
<path fill="var(--myColor2)" d="M23.696 19.408c-0.8 1.072-1.84 1.6-3.136 1.6-1.28 0-2.336-0.528-3.136-1.6-0.746-1.090-1.191-2.438-1.191-3.889 0-0.112 0.003-0.224 0.008-0.334l-0.001 0.016c0-1.728 0.4-3.12 1.184-4.192 0.681-0.982 1.803-1.617 3.072-1.617 0.022 0 0.045 0 0.067 0.001l-0.003-0c1.296 0 2.336 0.544 3.136 1.616s1.2 2.464 1.2 4.192c0.005 0.094 0.007 0.204 0.007 0.315 0 1.455-0.452 2.804-1.222 3.916l0.015-0.023zM18.896 12.272c-0.432 0.752-0.64 1.728-0.64 2.928s0.208 2.176 0.64 2.928 0.992 1.12 1.664 1.12c0.704 0 1.264-0.368 1.68-1.12 0.417-0.777 0.661-1.7 0.661-2.68 0-0.087-0.002-0.174-0.006-0.26l0 0.012c0.004-0.083 0.007-0.179 0.007-0.276 0-0.969-0.239-1.882-0.662-2.683l0.015 0.031c-0.432-0.752-0.992-1.12-1.696-1.12-0.672 0-1.232 0.368-1.68 1.12zM7.248 19.36c1.635-1.304 3.096-2.618 4.476-4.012l0.004-0.004c0.752-0.832 1.136-1.616 1.136-2.368 0-0.56-0.176-1.024-0.544-1.392-0.352-0.368-0.8-0.544-1.36-0.544-0.592 0-1.072 0.224-1.44 0.672-0.368 0.432-0.544 1.008-0.544 1.712h-2c0-1.232 0.368-2.224 1.088-2.992 0.705-0.714 1.684-1.156 2.766-1.156 0.062 0 0.125 0.001 0.186 0.004l-0.009-0c1.168 0 2.096 0.32 2.8 0.992 0.704 0.656 1.056 1.536 1.056 2.608-0.037 1.15-0.473 2.192-1.173 2.998l0.005-0.006c-0.768 0.96-2.048 2.080-3.84 3.328h4.72v1.6h-7.328v-1.44z"></path>
</symbol>
<symbol id="icon-projects" viewBox="0 0 32 32">
<path fill="#1e1e1e" style="fill: var(--color1, #1e1e1e)" d="M0 1.076h32v29.867h-32z"></path>
<path fill="#fff" style="fill: var(--color2, #fff)" d="M-2803.2-2277.324h3072v10150.401h-3072z"></path>
<path fill="#000" style="fill: var(--color3, #000); stroke: var(--color3, #000)" stroke="#000" stroke-linejoin="miter" stroke-linecap="butt" stroke-miterlimit="4" stroke-width="2.1333" d="M27.021 14.885c-0.792-0.73-1.526-1.445-2.241-2.178l-0.012-0.013c-2.355-2.423-5.141-5.741-6.554-9.133l1.971-0.821c1.252 3.008 3.802 6.091 6.112 8.469 1.299 1.331 2.653 2.586 4.068 3.772l0.086 0.070 0.064 0.051 0.015 0.013 0.002 0.002 1.041 0.832-1.041 0.834-0.002 0.004-0.015 0.011-0.064 0.051-0.25 0.207c-1.406 1.192-2.678 2.381-3.893 3.626l-0.011 0.012c-2.31 2.377-4.86 5.459-6.112 8.467l-1.971-0.821c1.414-3.392 4.198-6.709 6.554-9.131 0.813-0.838 1.587-1.579 2.253-2.191h-27.021v-2.133h27.021z"></path>
</symbol>
<symbol id="icon-scroll" viewBox="0 0 32 32">
<path stroke-linejoin="miter" stroke-linecap="butt" stroke-miterlimit="4" stroke-width="2" d="M17.057 26.341c0.574-0.624 1.27-1.35 2.055-2.113 2.273-2.209 5.384-4.822 8.565-6.146l0.77 1.849c-2.821 1.174-5.712 3.565-7.943 5.732-1.248 1.219-2.425 2.489-3.538 3.815l-0.066 0.081-0.048 0.060-0.012 0.014-0.002 0.002-0.78 0.976-0.782-0.976-0.004-0.002-0.010-0.014-0.048-0.060c-0.357-0.432-0.664-0.788-0.976-1.14l0.038 0.044c-0.883-0.997-1.754-1.909-2.656-2.788l-0.011-0.011c-2.229-2.167-5.12-4.556-7.941-5.732l0.77-1.849c3.181 1.326 6.292 3.937 8.563 6.146 0.786 0.762 1.481 1.489 2.055 2.113v-25.341h2.001v25.341z"></path>
</symbol>
</defs>
</svg>
