<svg aria-hidden="true" style="position: absolute; width: 0; height: 0; overflow: hidden;" version="1.1" xmlns="http://www.w3.org/2000/svg" xmlns:xlink="http://www.w3.org/1999/xlink">
<defs>
<symbol id="icon-email" viewBox="0 0 32 32">
<path fill="#1e1e1e" style="fill: var(--color1, #1e1e1e)" d="M0 0.758h32.009v30.484h-32.009z"></path>
<path fill="#fff" style="fill: var(--color2, #fff)" d="M-1184.32-6827.756h2194.88v7252.248h-2194.88z"></path>
<path fill="#000" style="fill: var(--color3, #000)" d="M-216.44-54.114h259.118c38.723 0 70.114 31.391 70.114 70.114s-31.391 70.114-70.114 70.114h-259.118c-38.723 0-70.114-31.391-70.114-70.114s31.391-70.114 70.114-70.114z"></path>
<path fill="#fff" style="fill: var(--color2, #fff); stroke: var(--color2, #fff)" stroke="#fff" stroke-linejoin="miter" stroke-linecap="butt" stroke-miterlimit="4" stroke-width="1.5238" d="M21.004 9.865c-0.646 0.026-1.41 0.043-2.244 0.030-2.416-0.034-5.498-0.305-7.926-1.303l0.581-1.41c2.154 0.887 4.999 1.155 7.367 1.189 0.149 0.002 0.325 0.003 0.5 0.003 1.246 0 2.478-0.058 3.695-0.17l-0.156 0.012 0.059-0.006 0.014-0.002h0.003l0.947-0.107-0.105 0.948v0.003l-0.002 0.015-0.006 0.056c-0.026 0.241-0.056 0.62-0.081 1.001l-0.005 0.096c-0.046 0.738-0.087 1.771-0.070 2.942 0.032 2.369 0.302 5.214 1.189 7.368l-1.41 0.579c-1-2.427-1.27-5.51-1.303-7.926-0.012-0.832 0.005-1.596 0.030-2.242l-13.651 13.651-1.078-1.078 13.651-13.651z"></path>
</symbol>
<symbol id="icon-projects" viewBox="0 0 32 32">
<path fill="#1e1e1e" style="fill: var(--color1, #1e1e1e)" d="M0 1.076h32v29.867h-32z"></path>
<path fill="#fff" style="fill: var(--color2, #fff)" d="M-2803.2-2277.324h3072v10150.401h-3072z"></path>
<path fill="#000" style="fill: var(--color3, #000); stroke: var(--color3, #000)" stroke="#000" stroke-linejoin="miter" stroke-linecap="butt" stroke-miterlimit="4" stroke-width="2.1333" d="M27.021 14.885c-0.792-0.73-1.526-1.445-2.241-2.178l-0.012-0.013c-2.355-2.423-5.141-5.741-6.554-9.133l1.971-0.821c1.252 3.008 3.802 6.091 6.112 8.469 1.299 1.331 2.653 2.586 4.068 3.772l0.086 0.070 0.064 0.051 0.015 0.013 0.002 0.002 1.041 0.832-1.041 0.834-0.002 0.004-0.015 0.011-0.064 0.051-0.25 0.207c-1.406 1.192-2.678 2.381-3.893 3.626l-0.011 0.012c-2.31 2.377-4.86 5.459-6.112 8.467l-1.971-0.821c1.414-3.392 4.198-6.709 6.554-9.131 0.813-0.838 1.587-1.579 2.253-2.191h-27.021v-2.133h27.021z"></path>
</symbol>
<symbol id="icon-scroll" viewBox="0 0 32 32">
<path stroke-linejoin="miter" stroke-linecap="butt" stroke-miterlimit="4" stroke-width="2" d="M17.057 26.341c0.574-0.624 1.27-1.35 2.055-2.113 2.273-2.209 5.384-4.822 8.565-6.146l0.77 1.849c-2.821 1.174-5.712 3.565-7.943 5.732-1.248 1.219-2.425 2.489-3.538 3.815l-0.066 0.081-0.048 0.060-0.012 0.014-0.002 0.002-0.78 0.976-0.782-0.976-0.004-0.002-0.010-0.014-0.048-0.060c-0.357-0.432-0.664-0.788-0.976-1.14l0.038 0.044c-0.883-0.997-1.754-1.909-2.656-2.788l-0.011-0.011c-2.229-2.167-5.12-4.556-7.941-5.732l0.77-1.849c3.181 1.326 6.292 3.937 8.563 6.146 0.786 0.762 1.481 1.489 2.055 2.113v-25.341h2.001v25.341z"></path>
</symbol>
</defs>
</svg>
